<svg width="254" height="87" viewBox="0 0 254 87" fill="none" xmlns="http://www.w3.org/2000/svg">
<g clip-path="url(#clip0_1_23)">
<rect width="253" height="87" transform="translate(0.5)" fill="white"/>
<path d="M218.695 86.9357C220.839 86.9357 222.985 86.982 225.129 86.9254C229.903 86.8019 234.62 82.9452 235.379 78.2421C236.007 74.3597 236.221 70.413 236.674 66.5023C236.782 65.5555 236.913 64.5161 237.387 63.7314C238.061 62.6071 239.073 61.6912 239.914 60.6672C243.641 56.1364 247.45 51.6726 251.045 47.0441C253.479 43.9104 254.3 40.2261 252.61 36.5238C251.709 34.5556 250.098 32.8781 248.657 31.1981C245.118 27.0635 244.696 22.327 247.581 17.7242C250.049 13.7826 249.902 9.29819 247.076 5.96896C244.845 3.34468 242.174 1.45365 238.524 1.39705C234.409 1.33273 230.297 1.20409 226.182 1.13462C198.619 0.661224 171.043 1.36875 143.49 0.0720473C140.43 -0.0720308 137.347 0.401369 134.272 0.486272C127.673 0.674088 121.072 0.908215 114.471 0.918506C100.921 0.944234 87.3709 0.728117 73.8236 0.807875C58.902 0.895351 43.9831 1.16807 29.0666 1.43822C23.7574 1.53341 18.4404 1.71865 13.2315 2.96133C8.8847 4.00075 5.9534 6.4861 5.07324 11.0091C4.79787 12.4345 4.54566 13.8855 4.50963 15.3315C4.35779 21.4574 4.35264 27.5858 4.17249 33.7117C4.03352 38.4123 3.99234 43.1385 2.4096 47.6744C0.451108 53.2857 0.0830871 59.0463 0.927218 64.9098C1.53973 69.1549 3.928 72.4121 6.71775 75.4352C12.516 81.7232 19.3257 85.3843 28.2688 85.2685C49.6629 84.9906 71.0647 85.1193 92.4614 85.163C98.5016 85.1759 104.57 85.1476 110.569 85.7213C115.431 86.187 120.271 86.7685 125.156 86.6913C138.66 86.4803 152.163 86.3105 165.661 85.9271C171.908 85.7496 178.146 85.1939 184.376 84.6562C187.992 84.3423 191.57 83.5679 195.185 83.2797C198.989 82.9787 202.708 83.4212 206.046 85.6055C206.803 86.1021 207.786 86.4057 208.694 86.4855L218.695 86.9357ZM49.2537 18.231C49.2563 18.1667 49.2614 18.1024 49.2666 18.0381C49.264 18.1024 49.2589 18.1667 49.2563 18.231C49.246 18.4111 49.2383 18.5938 49.2306 18.7765C49.2383 18.5938 49.2434 18.4111 49.2537 18.231Z" fill="#14120B"/>
<path d="M38.4396 28.651C38.4627 29.536 38.2388 30.4133 37.791 31.1775C37.3484 31.8927 36.759 32.5102 36.0642 32.9784C35.2921 33.4956 34.4557 33.9021 33.5729 34.1877C32.613 34.5041 31.6325 34.746 30.6365 34.9158C29.6251 35.0907 28.6008 35.2091 27.574 35.2683C26.5497 35.3274 25.5897 35.3557 24.6993 35.3557C23.8088 35.3557 22.9004 35.3274 21.9764 35.276C21.0345 35.2245 20.0977 35.1345 19.1661 35.0033C18.2345 34.872 17.3131 34.6997 16.3995 34.481C15.5271 34.2726 14.6675 33.9999 13.8337 33.6602L13.8028 10.9165C14.5929 10.6515 15.4344 10.4096 16.3249 10.1858C17.2153 9.9594 18.1238 9.77416 19.0529 9.62494C19.9768 9.47828 20.8981 9.36508 21.8195 9.2879C22.7408 9.21071 23.6287 9.17212 24.4908 9.17212C25.5074 9.17212 26.5239 9.22357 27.5354 9.32906C28.5313 9.43197 29.5196 9.60693 30.4924 9.85906C31.406 10.0958 32.2913 10.4174 33.1406 10.8239C33.9281 11.1944 34.6538 11.6883 35.2921 12.2827C35.902 12.8513 36.391 13.5382 36.7359 14.2972C37.0962 15.1308 37.2737 16.0364 37.2532 16.9446C37.2583 17.5775 37.1425 18.2053 36.9134 18.797C36.687 19.3708 36.355 19.9008 35.9381 20.351C35.4903 20.8296 34.9704 21.2335 34.3888 21.5371C33.7402 21.8741 33.0479 22.1134 32.3325 22.2523C33.2049 22.435 34.0516 22.7309 34.8469 23.1348C35.5623 23.495 36.2134 23.9736 36.777 24.5499C37.2995 25.0902 37.719 25.7282 38.0072 26.4229C38.3006 27.1304 38.4499 27.8843 38.4447 28.651H38.4396ZM24.6555 24.3389C24.2566 24.3389 23.8603 24.3749 23.4691 24.4444L23.3816 28.4709L24.007 28.5686C24.2077 28.5969 24.411 28.6124 24.6118 28.6124C24.9386 28.6124 25.2629 28.5841 25.5872 28.5326C25.9346 28.4812 26.2717 28.3757 26.5831 28.2162C26.892 28.0669 27.1648 27.8457 27.3732 27.5729C27.5894 27.2565 27.7001 26.8783 27.682 26.4949C27.6975 26.1064 27.592 25.7231 27.3732 25.4015C27.1751 25.1236 26.9177 24.8998 26.6217 24.7377C26.3181 24.5756 25.9861 24.4701 25.6464 24.4212C25.3195 24.3698 24.9849 24.3415 24.653 24.3389H24.6555ZM27.6666 18.5809C27.6743 18.2696 27.5868 17.9635 27.4144 17.7087C27.2445 17.4746 27.0309 17.2791 26.7864 17.1324C26.542 16.9781 26.2769 16.8674 25.9964 16.7954C25.739 16.7285 25.4739 16.6925 25.2063 16.6899C24.9258 16.6899 24.6478 16.7259 24.3802 16.7954C24.1151 16.8674 23.8551 16.9498 23.5901 17.045L23.464 20.9659C23.7882 20.9659 24.1923 20.9428 24.6735 20.8939C25.1471 20.8502 25.6155 20.7447 26.0607 20.5852C26.4879 20.4385 26.8739 20.1967 27.1956 19.8776C27.5276 19.5303 27.6975 19.0595 27.6692 18.5809H27.6666Z" fill="#FFEB13"/>
<path d="M64.4095 17.9197C64.4172 18.761 64.322 19.5998 64.1238 20.4179C63.9411 21.1486 63.6348 21.8433 63.2231 22.4762C62.7881 23.1322 62.2554 23.7137 61.6429 24.2077C60.9043 24.7917 60.109 25.2986 59.2701 25.7256L64.3168 33.2331L54.7895 34.7588L51.5236 27.2513L48.896 27.3234L48.4997 34.6688H39.3712C39.4433 31.9853 39.5102 29.3096 39.572 26.6493C39.6337 23.989 39.7109 21.3133 39.7933 18.6298C39.8216 17.2739 39.8499 15.9335 39.8756 14.6033C39.9014 13.2732 39.958 11.9327 40.0455 10.5769C41.0337 10.2733 42.0091 10.0186 42.9716 9.81788C43.9316 9.6172 44.8967 9.46283 45.8643 9.3522C46.832 9.24157 47.8125 9.16696 48.8136 9.12322C49.8148 9.07948 50.8339 9.0589 51.8762 9.0589C53.4538 9.0589 55.0237 9.24157 56.5524 9.6172C57.9678 9.9491 59.3164 10.5151 60.5491 11.2844C61.6712 11.9868 62.6234 12.9336 63.3363 14.0502C64.0569 15.2079 64.4275 16.551 64.4043 17.9197H64.4095ZM54.9233 18.4857C54.9233 18.02 54.8435 17.5621 54.6788 17.1273C54.5218 16.7233 54.2748 16.3554 53.9582 16.0595C53.6134 15.7431 53.2119 15.5012 52.7718 15.352C52.2339 15.1694 51.6729 15.0844 51.1067 15.0947C50.8288 15.0947 50.5534 15.1102 50.2806 15.1385C50.0155 15.1668 49.7504 15.2131 49.4905 15.2723L49.1508 21.8433H49.6526C50.278 21.8433 50.8982 21.7764 51.5056 21.6503C52.1027 21.5319 52.6766 21.3235 53.2093 21.0328C53.6906 20.7807 54.1101 20.4231 54.4395 19.9883C54.7586 19.5509 54.9259 19.0157 54.9104 18.4703L54.9233 18.4831V18.4857Z" fill="#FFEB13"/>
<path d="M85.9554 9.46284C85.8731 10.5692 85.7933 11.6652 85.7212 12.7458C85.6492 13.8263 85.5591 14.9224 85.4433 16.0287L76.4538 16.4249L76.2402 18.6504H82.566L82.0951 24.1228L75.7435 24.3003L75.5299 26.8808H84.5194C84.437 28.1776 84.3444 29.4665 84.2543 30.7427C84.1642 32.0188 84.0793 33.3 84.0098 34.5839L65.7323 34.9364L66.4117 9.46541H85.9554V9.46027V9.46284Z" fill="#FFEB13"/>
<path d="M113.413 33.4158L102.897 34.5453L101.623 30.5651H96.7876L95.7273 34.5556L84.9105 33.6731L93.3493 10.1318L105.136 9.63779L113.405 33.4132L113.413 33.4158ZM100.862 25.1519L99.2479 19.008L97.6677 25.1519H100.862Z" fill="#FFEB13"/>
<path d="M140.744 9.64295L130.525 21.4085L139.133 33.915L129.294 35.366L122.848 27.7299L122.508 35.7056L113.688 35.9912L114.368 8.9277L124.25 9.38567L123.488 17.3691L130.059 8.93542L140.744 9.64295Z" fill="#FFEB13"/>
<path d="M169.367 9.62235L167.849 33.5599L156.736 34.4089L150.807 21.586L149.875 34.6585H140.32L141.081 9.62235L151.684 9.20041L159.022 21.9179L159.361 9.90794L169.367 9.62235Z" fill="#FFEB13"/>
<path d="M191.171 9.46284C191.088 10.5692 191.009 11.6652 190.936 12.7458C190.864 13.8289 190.774 14.9224 190.659 16.0287L181.669 16.4249L181.455 18.6504H187.781L187.303 24.1228L180.943 24.3003L180.73 26.8808H189.719C189.637 28.1776 189.544 29.4665 189.454 30.7427C189.364 32.0188 189.279 33.3 189.21 34.5839L170.932 34.9364L171.612 9.46541H191.171V9.46027V9.46284Z" fill="#FFEB13"/>
<path d="M212.282 10.1009L211.095 17.5544C210.691 17.4592 210.282 17.3974 209.865 17.3614C209.453 17.3254 209.044 17.3099 208.635 17.3099C207.626 17.3048 206.628 17.4206 205.647 17.6547C204.754 17.8631 203.905 18.2207 203.133 18.7147C202.425 19.1649 201.833 19.767 201.393 20.4822C200.95 21.2361 200.724 22.098 200.744 22.9727C200.732 23.5233 200.855 24.0636 201.097 24.5524C201.331 25.0001 201.666 25.3835 202.08 25.6665C202.538 25.9752 203.048 26.1965 203.586 26.3174C204.211 26.464 204.852 26.5335 205.495 26.5309C206.041 26.5309 206.589 26.4795 207.127 26.3894C207.693 26.2942 208.249 26.1733 208.802 26.0189C209.353 25.8646 209.888 25.6922 210.416 25.4889C210.943 25.2857 211.42 25.0824 211.86 24.8715L211.01 33.1714C210.429 33.421 209.829 33.6294 209.219 33.7992C208.576 33.9818 207.92 34.1388 207.243 34.2777C206.566 34.4166 205.892 34.5195 205.207 34.5864C204.558 34.6585 203.91 34.6919 203.259 34.6919C201.547 34.7074 199.846 34.4269 198.235 33.8609C196.761 33.3515 195.389 32.5796 194.187 31.5814C193.06 30.6397 192.138 29.4742 191.482 28.1621C190.826 26.8422 190.486 25.3886 190.499 23.9144C190.486 21.9667 190.839 20.0346 191.539 18.2156C192.216 16.4558 193.255 14.8555 194.591 13.5253C196.017 12.1386 197.718 11.0606 199.584 10.3633C201.776 9.54259 204.103 9.14122 206.442 9.17724C207.446 9.17724 208.447 9.24414 209.443 9.37021C210.416 9.4937 211.373 9.73812 212.282 10.1009Z" fill="#FFEB13"/>
<path d="M240.506 9.64293L230.284 21.4084L238.892 33.9149L229.054 35.366L222.609 27.7299L222.27 35.7133L213.45 35.9989L214.13 8.9354L224.012 9.39337L223.25 17.3768L229.823 8.93283L240.503 9.64293H240.506Z" fill="#FFEB13"/>
<path d="M42.1069 37.131L40.3234 48.3099C39.7135 48.1684 39.0984 48.0732 38.4782 48.0166C37.8657 47.9651 37.248 47.9368 36.6329 47.9368C35.1222 47.9291 33.6167 48.1041 32.1498 48.454C30.8141 48.7653 29.5402 49.3004 28.3821 50.0337C27.3218 50.7052 26.4287 51.6108 25.7725 52.6811C25.1085 53.8106 24.7713 55.1047 24.8048 56.4168C24.7842 57.2376 24.9669 58.0532 25.3298 58.789C25.6772 59.4579 26.1868 60.0291 26.807 60.4562C27.4916 60.9193 28.2585 61.2512 29.0641 61.4364C30.0008 61.6525 30.9608 61.7606 31.9259 61.7529C32.7468 61.7529 33.5652 61.6783 34.3759 61.5393C35.2226 61.3978 36.0642 61.2126 36.8903 60.981C37.7164 60.7521 38.5219 60.4871 39.3043 60.1912C40.0867 59.8953 40.8073 59.5814 41.4661 59.2624L40.1922 71.7149C39.3197 72.0853 38.4216 72.3992 37.5054 72.6565C36.5403 72.9215 35.5495 73.1582 34.5329 73.3717C33.5163 73.5853 32.4921 73.7474 31.4652 73.8529C30.4924 73.9558 29.517 74.0072 28.5391 74.0098C25.9732 74.0304 23.4228 73.611 21.0011 72.7646C18.7878 72.003 16.7289 70.8452 14.9249 69.3453C13.234 67.9302 11.8546 66.1807 10.8689 64.2074C9.88581 62.2263 9.38139 60.042 9.40713 57.8293C9.38654 54.9092 9.91669 52.0122 10.9641 49.285C11.9807 46.6453 13.5403 44.2474 15.5451 42.2509C17.6837 40.1566 20.2341 38.5332 23.0368 37.4809C26.0144 36.3154 29.4398 35.7314 33.3156 35.7314C34.8211 35.7314 36.3241 35.8291 37.8142 36.0247C39.2837 36.2073 40.7275 36.5778 42.1043 37.1284L42.1069 37.131Z" fill="#FFEB13"/>
<path d="M83.0421 55.681C83.0421 57.253 82.8208 58.8224 82.373 60.3327C81.9303 61.8146 81.2818 63.2297 80.448 64.5341C79.5935 65.8617 78.5667 67.0683 77.3957 68.1232C76.1784 69.2218 74.8273 70.1635 73.3706 70.9173C71.8214 71.7149 70.1846 72.3246 68.4886 72.7311C66.6536 73.1737 64.7775 73.3923 62.8911 73.3795C61.0561 73.3872 59.2237 73.1865 57.4351 72.7697C55.7597 72.3812 54.1332 71.8101 52.5839 71.0614C51.117 70.3538 49.7427 69.4636 48.4971 68.4139C47.3081 67.4105 46.2606 66.2528 45.3831 64.9689C44.5286 63.7134 43.8544 62.3446 43.3783 60.9013C42.8996 59.4399 42.6577 57.9091 42.6628 56.368C42.6628 54.8397 42.8841 53.3166 43.3268 51.8501C43.7746 50.3759 44.418 48.9737 45.2518 47.677C46.1062 46.3494 47.1254 45.1402 48.2886 44.0725C49.4931 42.9661 50.839 42.0142 52.2802 41.2398C53.7935 40.4293 55.402 39.8041 57.0671 39.3873C58.8454 38.9371 60.6726 38.7158 62.5076 38.7236C65.354 38.6875 68.1926 39.0863 70.9206 39.9096C73.2857 40.6171 75.4861 41.7698 77.4086 43.316C79.1792 44.7671 80.6024 46.5964 81.5752 48.6675C82.5789 50.8699 83.0807 53.2626 83.0421 55.681ZM68.9209 56.368C68.9209 55.6141 68.7897 54.8629 68.5246 54.1553C67.9945 52.6966 66.893 51.5182 65.4724 50.8956C64.654 50.5354 63.7738 50.363 62.8782 50.3784C61.9697 50.363 61.0587 50.5174 60.2068 50.8287C59.4605 51.1065 58.7759 51.5233 58.1866 52.0611C57.6333 52.5705 57.1906 53.1957 56.8972 53.8903C56.6013 54.5902 56.4468 55.344 56.4494 56.103C56.4571 56.862 56.591 57.6132 56.8457 58.3285C57.098 59.0669 57.4866 59.7512 57.991 60.343C59.1131 61.6628 60.773 62.4064 62.505 62.3575C63.4264 62.3729 64.34 62.2083 65.1918 61.8687C65.9459 61.5676 66.6356 61.1174 67.2121 60.5437C68.311 59.4322 68.9287 57.9322 68.9287 56.3705H68.9158V56.3654L68.9209 56.368Z" fill="#FFEB13"/>
<path d="M134.439 35.7545L131.513 74.653L117.008 75.183L117.134 54.6776L110.584 71.2132H104.995L99.9711 56.4297L99.9067 73.6007L85.2142 73.9712L85.8499 37.3522L102.195 36.8222L108.683 54.3637L117.332 35.7622L134.436 35.7545H134.439Z" fill="#FFEB13"/>
<path d="M166.881 36.179C166.755 37.8385 166.637 39.4825 166.529 41.106C166.423 42.7294 166.287 44.3735 166.132 46.0329L152.649 46.617L152.333 49.9565H161.819L161.119 58.1689L151.576 58.4339L151.26 62.3035H164.743C164.617 64.2485 164.485 66.1756 164.346 68.0923C164.207 70.0091 164.086 71.9284 163.978 73.8529L136.565 74.3829L137.581 36.1765H166.876L166.881 36.179Z" fill="#FFEB13"/>
<path d="M203.995 53.35C204.026 55.6296 203.64 57.8988 202.85 60.0394C202.114 61.9844 201.03 63.7828 199.656 65.342C198.248 66.9191 196.601 68.2673 194.774 69.3298C192.818 70.467 190.733 71.3855 188.571 72.0596C186.232 72.7903 183.831 73.3203 181.401 73.6393C178.812 73.9867 176.208 74.1616 173.593 74.1565C172.597 74.1565 171.622 74.1333 170.667 74.0896C169.712 74.0458 168.737 73.9789 167.741 73.8915L168.631 38.3248C170.996 37.6996 173.403 37.2622 175.835 37.0126C178.282 36.7553 180.74 36.6215 183.2 36.6164C186.031 36.601 188.852 36.9946 191.57 37.7896C193.95 38.4663 196.179 39.5803 198.15 41.0725C199.97 42.4721 201.442 44.2654 202.458 46.3211C203.514 48.5106 204.039 50.9136 203.997 53.3423L203.995 53.35ZM190.949 55.0455C190.973 54.109 190.852 53.1751 190.581 52.2797C190.324 51.4101 189.879 50.6126 189.277 49.9359C188.636 49.2284 187.851 48.6675 186.973 48.2919C185.913 47.8493 184.781 47.6204 183.633 47.6152L182.359 64.0427C184.698 63.7751 186.873 62.6997 188.515 61.0068C189.253 60.2452 189.848 59.355 190.265 58.3825C190.671 57.4383 190.906 56.4297 190.949 55.4032V55.043V55.0455Z" fill="#FFEB13"/>
<path d="M244.608 38.51L227.116 58.8585L226.29 75.4557H211.214L211.61 58.9768L202.518 39.3153L218.726 37.6198L221.271 49.0792L229.352 37.6198L244.611 38.51H244.608Z" fill="#FFEB13"/>
</g>
<defs>
<clipPath id="clip0_1_23">
<rect width="253" height="87" fill="white" transform="translate(0.5)"/>
</clipPath>
</defs>
</svg>
